{
	"asset":{
		"generator":"Khronos glTF Blender I/O v4.2.60",
		"version":"2.0"
	},
	"scene":0,
	"scenes":[
		{
			"name":"Scene",
			"nodes":[
				0
			]
		}
	],
	"nodes":[
		{
			"mesh":0,
			"name":"Donut",
			"translation":[
				0.690342903137207,
				0.6362483501434326,
				-2.0221755504608154
			]
		}
	],
	"materials":[
		{
			"doubleSided":true,
			"name":"Material.003",
			"pbrMetallicRoughness":{
				"baseColorFactor":[
					0.8003553152084351,
					0.7386888861656189,
					0.16721414029598236,
					1
				],
				"metallicFactor":0,
				"roughnessFactor":0.5
			}
		},
		{
			"doubleSided":true,
			"name":"Material.002",
			"pbrMetallicRoughness":{
				"baseColorFactor":[
					0.7156899571418762,
					0.03433975577354431,
					0.05612853169441223,
					1
				],
				"metallicFactor":0,
				"roughnessFactor":0.27981650829315186
			}
		},
		{
			"doubleSided":true,
			"name":"Material.001",
			"pbrMetallicRoughness":{
				"baseColorFactor":[
					0.8003553152084351,
					0.7386888861656189,
					0.16721414029598236,
					1
				],
				"metallicFactor":0,
				"roughnessFactor":0.5
			}
		},
		{
			"doubleSided":true,
			"name":"Material.005",
			"pbrMetallicRoughness":{
				"baseColorFactor":[
					0.6239573359489441,
					0.020288459956645966,
					0.12213882058858871,
					1
				],
				"metallicFactor":0,
				"roughnessFactor":0.27981650829315186
			}
		},
		{
			"doubleSided":true,
			"name":"Material.007",
			"pbrMetallicRoughness":{
				"baseColorFactor":[
					0.8003553152084351,
					0.7386888861656189,
					0.16721414029598236,
					1
				],
				"metallicFactor":0,
				"roughnessFactor":0.5
			}
		},
		{
			"doubleSided":true,
			"name":"Material.006",
			"pbrMetallicRoughness":{
				"baseColorFactor":[
					0.8000315427780151,
					0.15009132027626038,
					0.23532190918922424,
					1
				],
				"metallicFactor":0,
				"roughnessFactor":0.27981650829315186
			}
		}
	],
	"meshes":[
		{
			"name":"Torus",
			"primitives":[
				{
					"attributes":{
						"POSITION":0,
						"NORMAL":1,
						"TEXCOORD_0":2
					},
					"indices":3,
					"material":0
				},
				{
					"attributes":{
						"POSITION":4,
						"NORMAL":5,
						"TEXCOORD_0":6
					},
					"indices":7,
					"material":1
				},
				{
					"attributes":{
						"POSITION":8,
						"NORMAL":9,
						"TEXCOORD_0":10
					},
					"indices":3,
					"material":2
				},
				{
					"attributes":{
						"POSITION":11,
						"NORMAL":12,
						"TEXCOORD_0":13
					},
					"indices":7,
					"material":3
				},
				{
					"attributes":{
						"POSITION":14,
						"NORMAL":15,
						"TEXCOORD_0":16
					},
					"indices":3,
					"material":4
				},
				{
					"attributes":{
						"POSITION":17,
						"NORMAL":18,
						"TEXCOORD_0":19
					},
					"indices":7,
					"material":5
				}
			]
		}
	],
	"accessors":[
		{
			"bufferView":0,
			"componentType":5126,
			"count":429,
			"max":[
				0.6779178380966187,
				0.406594455242157,
				0.7009640336036682
			],
			"min":[
				-0.6780327558517456,
				-0.2799999713897705,
				-0.6861124038696289
			],
			"type":"VEC3"
		},
		{
			"bufferView":1,
			"componentType":5126,
			"count":429,
			"type":"VEC3"
		},
		{
			"bufferView":2,
			"componentType":5126,
			"count":429,
			"type":"VEC2"
		},
		{
			"bufferView":3,
			"componentType":5123,
			"count":2304,
			"type":"SCALAR"
		},
		{
			"bufferView":4,
			"componentType":5126,
			"count":25408,
			"max":[
				0.6921319961547852,
				0.41099098324775696,
				0.7213106751441956
			],
			"min":[
				-0.6877601146697998,
				-0.2563992142677307,
				-0.7037121057510376
			],
			"type":"VEC3"
		},
		{
			"bufferView":5,
			"componentType":5126,
			"count":25408,
			"type":"VEC3"
		},
		{
			"bufferView":6,
			"componentType":5126,
			"count":25408,
			"type":"VEC2"
		},
		{
			"bufferView":7,
			"componentType":5123,
			"count":151872,
			"type":"SCALAR"
		},
		{
			"bufferView":8,
			"componentType":5126,
			"count":429,
			"max":[
				-0.8296407461166382,
				0.4096471667289734,
				1.1492629051208496
			],
			"min":[
				-2.185591220855713,
				-0.2769472599029541,
				-0.23781347274780273
			],
			"type":"VEC3"
		},
		{
			"bufferView":9,
			"componentType":5126,
			"count":429,
			"type":"VEC3"
		},
		{
			"bufferView":10,
			"componentType":5126,
			"count":429,
			"type":"VEC2"
		},
		{
			"bufferView":11,
			"componentType":5126,
			"count":25408,
			"max":[
				-0.8154265880584717,
				0.41404369473457336,
				1.169609546661377
			],
			"min":[
				-2.1953186988830566,
				-0.2533465027809143,
				-0.255413293838501
			],
			"type":"VEC3"
		},
		{
			"bufferView":12,
			"componentType":5126,
			"count":25408,
			"type":"VEC3"
		},
		{
			"bufferView":13,
			"componentType":5126,
			"count":25408,
			"type":"VEC2"
		},
		{
			"bufferView":14,
			"componentType":5126,
			"count":429,
			"max":[
				0.24065709114074707,
				0.41050267219543457,
				2.2139804363250732
			],
			"min":[
				-1.1152935028076172,
				-0.2760917544364929,
				0.8269039392471313
			],
			"type":"VEC3"
		},
		{
			"bufferView":15,
			"componentType":5126,
			"count":429,
			"type":"VEC3"
		},
		{
			"bufferView":16,
			"componentType":5126,
			"count":429,
			"type":"VEC2"
		},
		{
			"bufferView":17,
			"componentType":5126,
			"count":25408,
			"max":[
				0.2548712491989136,
				0.41489920020103455,
				2.2343268394470215
			],
			"min":[
				-1.1250208616256714,
				-0.2524909973144531,
				0.8093041181564331
			],
			"type":"VEC3"
		},
		{
			"bufferView":18,
			"componentType":5126,
			"count":25408,
			"type":"VEC3"
		},
		{
			"bufferView":19,
			"componentType":5126,
			"count":25408,
			"type":"VEC2"
		}
	],
	"bufferViews":[
		{
			"buffer":0,
			"byteLength":5148,
			"byteOffset":0,
			"target":34962
		},
		{
			"buffer":0,
			"byteLength":5148,
			"byteOffset":5148,
			"target":34962
		},
		{
			"buffer":0,
			"byteLength":3432,
			"byteOffset":10296,
			"target":34962
		},
		{
			"buffer":0,
			"byteLength":4608,
			"byteOffset":13728,
			"target":34963
		},
		{
			"buffer":0,
			"byteLength":304896,
			"byteOffset":18336,
			"target":34962
		},
		{
			"buffer":0,
			"byteLength":304896,
			"byteOffset":323232,
			"target":34962
		},
		{
			"buffer":0,
			"byteLength":203264,
			"byteOffset":628128,
			"target":34962
		},
		{
			"buffer":0,
			"byteLength":303744,
			"byteOffset":831392,
			"target":34963
		},
		{
			"buffer":0,
			"byteLength":5148,
			"byteOffset":1135136,
			"target":34962
		},
		{
			"buffer":0,
			"byteLength":5148,
			"byteOffset":1140284,
			"target":34962
		},
		{
			"buffer":0,
			"byteLength":3432,
			"byteOffset":1145432,
			"target":34962
		},
		{
			"buffer":0,
			"byteLength":304896,
			"byteOffset":1148864,
			"target":34962
		},
		{
			"buffer":0,
			"byteLength":304896,
			"byteOffset":1453760,
			"target":34962
		},
		{
			"buffer":0,
			"byteLength":203264,
			"byteOffset":1758656,
			"target":34962
		},
		{
			"buffer":0,
			"byteLength":5148,
			"byteOffset":1961920,
			"target":34962
		},
		{
			"buffer":0,
			"byteLength":5148,
			"byteOffset":1967068,
			"target":34962
		},
		{
			"buffer":0,
			"byteLength":3432,
			"byteOffset":1972216,
			"target":34962
		},
		{
			"buffer":0,
			"byteLength":304896,
			"byteOffset":1975648,
			"target":34962
		},
		{
			"buffer":0,
			"byteLength":304896,
			"byteOffset":2280544,
			"target":34962
		},
		{
			"buffer":0,
			"byteLength":203264,
			"byteOffset":2585440,
			"target":34962
		}
	],
	"buffers":[
		{
			"byteLength":2788704,
			"uri":"please_upload.bin"
		}
	]
}
